<?xml version="1.0" encoding="iso-8859-1"?>
<!-- Uploaded to: SVG Repo, www.svgrepo.com, Generator: SVG Repo Mixer Tools -->
<!DOCTYPE svg PUBLIC "-//W3C//DTD SVG 1.1//EN" "http://www.w3.org/Graphics/SVG/1.1/DTD/svg11.dtd">
<svg fill="#000000" height="800px" width="800px" version="1.1" id="Capa_1" xmlns="http://www.w3.org/2000/svg" xmlns:xlink="http://www.w3.org/1999/xlink" 
	 viewBox="0 0 450.76 450.76" xml:space="preserve">
<path d="M380.804,439.534L336.621,81.439h20.735c11.12,0,20.167-9.047,20.167-20.166V20.166C377.523,9.047,368.476,0,357.356,0
	H93.402C82.283,0,73.236,9.047,73.236,20.167v41.106c0,11.119,9.047,20.166,20.166,20.166h20.736L69.956,439.534
	c-0.676,5.481,3.219,10.473,8.7,11.149c0.416,0.052,0.829,0.076,1.237,0.076c4.977,0,9.287-3.711,9.912-8.776l26.729-216.629
	h217.691l26.729,216.629c0.625,5.065,4.936,8.776,9.912,8.776c0.408,0,0.821-0.025,1.237-0.076
	C377.586,450.007,381.48,445.016,380.804,439.534z M122.95,173.355l11.341-91.915h182.179l11.34,91.915H122.95z"/>
</svg>