<?xml version="1.0" encoding="iso-8859-1"?>
<!-- Uploaded to: SVG Repo, www.svgrepo.com, Generator: SVG Repo Mixer Tools -->
<!DOCTYPE svg PUBLIC "-//W3C//DTD SVG 1.1//EN" "http://www.w3.org/Graphics/SVG/1.1/DTD/svg11.dtd">
<svg fill="#000000" height="800px" width="800px" version="1.1" id="Capa_1" xmlns="http://www.w3.org/2000/svg" xmlns:xlink="http://www.w3.org/1999/xlink" 
	 viewBox="0 0 342.483 342.483" xml:space="preserve">
<g>
	<path d="M332.483,71.393H173.195c0.003-0.093,0.014-0.184,0.014-0.277V56.427c0-5.523-4.477-10-10-10s-10,4.477-10,10v14.688
		c0,0.094,0.011,0.184,0.014,0.277h-16.99c0.003-0.093,0.014-0.184,0.014-0.277c0-5.523-4.477-10-10-10H61.597
		c-5.523,0-10,4.477-10,10c0,0.094,0.011,0.184,0.014,0.277H10c-5.523,0-10,4.477-10,10v34.453c0,5.523,4.477,10,10,10h11.242
		v160.21c0,5.523,4.477,10,10,10s10-4.477,10-10v-160.21h260v160.21c0,5.523,4.477,10,10,10s10-4.477,10-10v-160.21h11.242
		c5.523,0,10-4.477,10-10V81.393C342.483,75.87,338.006,71.393,332.483,71.393z M322.483,105.846H20V91.393h302.483V105.846z"/>
	<path d="M145.459,159.498H89.169c-5.523,0-10,4.477-10,10s4.477,10,10,10h5.465c0.157,5.385,4.562,9.706,9.985,9.706h2.696v86.853
		h-2.696c-5.523,0-10,4.477-10,10s4.477,10,10,10h25.391c5.523,0,10-4.477,10-10s-4.477-10-10-10h-2.695v-86.853h2.695
		c5.424,0,9.828-4.32,9.985-9.706h5.465c5.523,0,10-4.477,10-10S150.982,159.498,145.459,159.498z"/>
	<path d="M253.314,159.498h-56.291c-5.523,0-10,4.477-10,10s4.477,10,10,10h5.465c0.157,5.385,4.562,9.706,9.985,9.706h2.695v86.853
		h-2.695c-5.523,0-10,4.477-10,10s4.477,10,10,10h25.391c5.523,0,10-4.477,10-10s-4.477-10-10-10h-2.696v-86.853h2.696
		c5.424,0,9.828-4.32,9.985-9.706h5.465c5.523,0,10-4.477,10-10S258.837,159.498,253.314,159.498z"/>
</g>
</svg>