<svg width="24" height="24" viewBox="0 0 24 24" fill="none" xmlns="http://www.w3.org/2000/svg">
  <path d="M20.84 4.61C20.3 4.07 19.65 3.64 18.93 3.36C18.21 3.08 17.44 2.94 16.66 2.94C15.88 2.94 15.11 3.08 14.39 3.36C13.67 3.64 13.02 4.07 12.48 4.61L12 5.09L11.52 4.61C10.43 3.52 8.91 2.94 7.34 2.94C5.77 2.94 4.25 3.52 3.16 4.61C2.07 5.7 1.49 7.22 1.49 8.79C1.49 10.36 2.07 11.88 3.16 12.97L12 21.81L20.84 12.97C21.93 11.88 22.51 10.36 22.51 8.79C22.51 7.22 21.93 5.7 20.84 4.61Z" stroke="currentColor" stroke-width="2" stroke-linecap="round" stroke-linejoin="round"/>
</svg> 