<?xml version="1.0" encoding="UTF-8"?>
<svg width="300" height="300" version="1.1" viewBox="0 0 300 300" xmlns="http://www.w3.org/2000/svg">
    <!-- Фон -->
    <rect width="300" height="300" fill="#FFFFFF"/>
    <!-- Рамка -->
    <rect x="1" y="1" width="298" height="298" fill="none" stroke="#36406D" stroke-width="2"/>
    <!-- Иконка -->
    <g transform="translate(75,60)" fill="#36406D">
        <path d="M75,0 C116.421,0 150,33.579 150,75 C150,116.421 116.421,150 75,150 C33.579,150 0,116.421 0,75 C0,33.579 33.579,0 75,0 ZM75,18 C43.551,18 18,43.551 18,75 C18,106.449 43.551,132 75,132 C106.449,132 132,106.449 132,75 C132,43.551 106.449,18 75,18 ZM75,49.5 C89.636,49.5 101.5,61.364 101.5,76 C101.5,90.636 89.636,102.5 75,102.5 C60.364,102.5 48.5,90.636 48.5,76 C48.5,61.364 60.364,49.5 75,49.5 Z"/>
    </g>
    <!-- Текст -->
    <style>
        @import url('https://fonts.googleapis.com/css2?family=Montserrat:wght@500&amp;display=swap');
        .placeholder-text { font-family: 'Montserrat', sans-serif; font-weight: 500; }
    </style>
    <text x="150" y="250" text-anchor="middle" class="placeholder-text" font-size="16" fill="#3D4158">
        Изображение отсутствует
    </text>
</svg> 